<svg xmlns="http://www.w3.org/2000/svg" xmlns:xlink="http://www.w3.org/1999/xlink" id="Layer_1" x="0px" y="0px" viewBox="0 0 90 84" style="enable-background:new 0 0 90 84;" xml:space="preserve">
<style type="text/css">
	.st0{fill:#F6F6F6;}
	.st1{fill:#FB4848;}
	.st2{fill:#FF6A48;}
	.st3{fill:#F7941D;}
	.st4{opacity:0.25;fill:none;stroke:#000000;stroke-width:2;stroke-miterlimit:10;}
	.st5{fill:#FFFFFF;}
	.st6{fill:#26201F;}
	.st7{fill:#00FF00;}
	.st8{fill:#C1272D;}
	.st9{fill:#3E4095;}
	.st10{fill:#009245;}
	.st11{fill:#D89E1E;}
	.st12{opacity:0.5;fill:#FFFFFF;}
	.st13{fill:#FF0000;}
	.st14{fill:#ABE2E5;}
	.st15{fill:#65D6DB;}
	.st16{fill:#999999;}
	.st17{fill:#333333;}
	.st18{fill:#FDC904;}
	.st19{fill:#F2A62F;}
	.st20{fill:#F28613;}
	.st21{fill:#555555;}
	.st22{opacity:0.4;}
	.st23{fill:none;stroke:#333333;stroke-width:2.2643;stroke-miterlimit:10;}
	.st24{fill:#FF781E;}
	.st25{fill:#FF363D;}
	.st26{clip-path:url(#SVGID_6_);}
	.st27{fill:#F2CC85;}
	.st28{fill:#FBDFAB;}
	.st29{fill:none;stroke:#FCB28D;stroke-width:3.6175;stroke-linecap:round;stroke-linejoin:round;stroke-miterlimit:10;}
	.st30{fill:#FCB28D;}
	.st31{fill:#E6E6E6;}
	.st32{fill:#FA6880;}
	.st33{fill:#ED2064;}
	.st34{fill:url(#SVGID_7_);}
	.st35{fill:none;stroke:#D8654E;stroke-width:0.5731;stroke-linecap:round;stroke-linejoin:round;stroke-miterlimit:10;}
	.st36{fill:url(#SVGID_8_);}
	.st37{fill:url(#SVGID_9_);}
	.st38{fill:#FBECD0;}
	.st39{fill:#4FBEC7;}
	.st40{fill:none;stroke:#F7A379;stroke-width:4.1507;stroke-linecap:round;stroke-linejoin:round;stroke-miterlimit:10;}
	.st41{fill:#F7A379;}
	.st42{fill:#5149BF;}
	.st43{fill:#6F80FE;}
	.st44{fill:#2D2620;}
	.st45{fill:url(#SVGID_10_);}
	.st46{fill:none;stroke:#D8654E;stroke-width:0.6374;stroke-linecap:round;stroke-linejoin:round;stroke-miterlimit:10;}
	.st47{fill:url(#SVGID_11_);}
	.st48{fill:none;stroke:#845D42;stroke-width:0.881;stroke-linecap:round;stroke-linejoin:round;stroke-miterlimit:10;}
	.st49{fill:url(#SVGID_12_);}
	.st50{clip-path:url(#SVGID_14_);}
	.st51{fill:none;stroke:#F7A379;stroke-width:3.6175;stroke-linecap:round;stroke-linejoin:round;stroke-miterlimit:10;}
	.st52{fill:#534741;}
	.st53{fill:url(#SVGID_15_);}
	.st54{fill:url(#SVGID_16_);}
	.st55{fill:url(#SVGID_17_);}
	.st56{fill:#736357;}
	.st57{fill:url(#SVGID_18_);}
	.st58{fill:url(#SVGID_19_);}
	.st59{fill:url(#SVGID_20_);}
	.st60{fill:url(#SVGID_21_);}
	.st61{fill:url(#SVGID_22_);}
	.st62{fill:url(#SVGID_23_);}
	.st63{fill:none;}
	.st64{fill:#D8654E;}
	.st65{clip-path:url(#SVGID_25_);}
	.st66{fill:#ED1E79;}
	.st67{fill:none;stroke:#EB9B73;stroke-width:3.6175;stroke-linecap:round;stroke-linejoin:round;stroke-miterlimit:10;}
	.st68{fill:#EB9B73;}
	.st69{fill:#D52B2F;}
	.st70{fill:url(#SVGID_26_);}
	.st71{fill:url(#SVGID_27_);}
	.st72{fill:url(#SVGID_28_);}
	.st73{fill:url(#SVGID_29_);}
	.st74{fill:url(#SVGID_30_);}
	.st75{fill:url(#SVGID_31_);}
	.st76{opacity:0.55;fill:url(#SVGID_34_);}
	.st77{fill:none;stroke:#FFFFFF;stroke-width:3;stroke-miterlimit:10;}
	.st78{fill:none;stroke:#3E4095;stroke-miterlimit:10;}
	.st79{fill:#E57828;}
	.st80{fill:none;stroke:#00FF00;stroke-width:3;stroke-miterlimit:10;}
	.st81{fill:#E57828;stroke:#E57828;stroke-miterlimit:10;}
	.st82{fill:none;stroke:#DDDDDD;stroke-miterlimit:10;}
	.st83{clip-path:url(#SVGID_36_);}
	.st84{clip-path:url(#SVGID_38_);}
	.st85{opacity:0.7;}
	.st86{opacity:0.85;fill:#00FF00;}
	.st87{fill:none;stroke:#FFFFFF;stroke-miterlimit:10;}
	.st88{fill:none;stroke:#333333;stroke-width:0.5;stroke-miterlimit:10;}
	.st89{fill:none;stroke:#3E4095;stroke-width:2;stroke-miterlimit:10;}
	.st90{fill:#DDDDDD;}
	.st91{fill:none;stroke:#FFFFFF;stroke-width:1.5;stroke-miterlimit:10;}
	.st92{opacity:0.85;fill:url(#SVGID_49_);}
	.st93{opacity:0.55;}
	.st94{opacity:0.5;fill:none;stroke:#FFFFFF;stroke-width:0.5;stroke-miterlimit:10;}
	.st95{fill:none;stroke:#E57828;stroke-width:3;stroke-miterlimit:10;}
	.st96{opacity:0.75;}
	.st97{clip-path:url(#SVGID_81_);}
	.st98{opacity:0.75;fill:url(#SVGID_82_);}
	.st99{fill:none;stroke:#00FF00;stroke-width:2;stroke-miterlimit:10;}
	.st100{opacity:0.65;fill:url(#SVGID_83_);}
	.st101{opacity:0.9;fill:#3E4095;}
	.st102{fill:url(#SVGID_86_);}
	.st103{fill:#2E3192;}
	.st104{clip-path:url(#SVGID_90_);}
	.st105{fill:url(#SVGID_91_);}
	.st106{fill:url(#SVGID_92_);}
	.st107{fill:url(#SVGID_93_);}
	.st108{fill:url(#SVGID_94_);}
	.st109{fill:url(#SVGID_95_);}
	.st110{fill:url(#SVGID_96_);}
	.st111{clip-path:url(#SVGID_98_);}
	.st112{fill:url(#SVGID_99_);}
	.st113{fill:url(#SVGID_100_);}
	.st114{fill:url(#SVGID_101_);}
	.st115{fill:url(#SVGID_102_);}
	.st116{fill:url(#SVGID_103_);}
	.st117{fill:url(#SVGID_104_);}
	.st118{fill:url(#SVGID_105_);}
	.st119{fill:url(#SVGID_106_);}
	.st120{fill:url(#SVGID_107_);}
	.st121{clip-path:url(#SVGID_109_);}
	.st122{fill:url(#SVGID_110_);}
	.st123{fill:url(#SVGID_111_);}
	.st124{fill:url(#SVGID_112_);}
	.st125{fill:url(#SVGID_113_);}
	.st126{fill:url(#SVGID_114_);}
	.st127{fill:url(#SVGID_115_);}
	.st128{clip-path:url(#SVGID_117_);}
	.st129{fill:url(#SVGID_118_);}
	.st130{fill:url(#SVGID_119_);}
	.st131{fill:url(#SVGID_120_);}
	.st132{fill:url(#SVGID_121_);}
	.st133{fill:url(#SVGID_122_);}
	.st134{fill:url(#SVGID_123_);}
	.st135{clip-path:url(#SVGID_125_);}
	.st136{fill:url(#SVGID_126_);}
	.st137{fill:url(#SVGID_127_);}
	.st138{fill:url(#SVGID_128_);}
	.st139{fill:url(#SVGID_129_);}
	.st140{fill:url(#SVGID_130_);}
	.st141{fill:url(#SVGID_131_);}
	.st142{fill:url(#SVGID_132_);}
	.st143{fill:url(#SVGID_133_);}
	.st144{fill:url(#SVGID_134_);}
	.st145{clip-path:url(#SVGID_136_);}
	.st146{fill:url(#SVGID_137_);}
	.st147{fill:url(#SVGID_138_);}
	.st148{fill:url(#SVGID_139_);}
	.st149{fill:url(#SVGID_140_);}
	.st150{fill:url(#SVGID_141_);}
	.st151{fill:url(#SVGID_142_);}
	.st152{opacity:0.55;fill:url(#SVGID_145_);}
	.st153{opacity:0.55;fill:url(#SVGID_148_);}
	.st154{opacity:0.85;fill:url(#SVGID_159_);}
	.st155{fill:url(#SVGID_168_);}
	.st156{fill:url(#SVGID_169_);}
	.st157{fill:url(#SVGID_170_);}
	.st158{fill:url(#SVGID_177_);}
	.st159{fill:url(#SVGID_178_);}
	.st160{fill:url(#SVGID_179_);}
	.st161{fill:url(#SVGID_180_);}
	.st162{fill:none;stroke:#00FF00;stroke-miterlimit:10;}
	.st163{fill:none;stroke:#333333;stroke-miterlimit:10;}
	.st164{opacity:0.85;fill:url(#SVGID_185_);}
	.st165{fill:#F2F2F2;}
	.st166{fill:#FF2116;}
	.st167{fill:#2C2C2C;}
	.st168{fill:#FFFFFF;stroke:#E5E5E5;stroke-miterlimit:10;}
	.st169{fill:#00FF00;stroke:#E5E5E5;stroke-miterlimit:10;}
	.st170{fill:#F8F8F8;stroke:#D5D5D5;stroke-miterlimit:10;}
	.st171{fill:#3E4095;stroke:#E5E5E5;stroke-miterlimit:10;}
	.st172{fill:#333333;stroke:#E5E5E5;stroke-miterlimit:10;}
	.st173{fill:#FFFFFF;stroke:#D5D5D5;stroke-miterlimit:10;}
	.st174{fill:none;stroke:#CCCCCC;stroke-miterlimit:10;}
	.st175{fill:#E5E5E5;}
	.st176{opacity:0.25;}
	.st177{fill:none;stroke:#000000;stroke-width:3.4879;stroke-miterlimit:10;}
	.st178{fill:url(#SVGID_188_);}
	.st179{fill:none;stroke:url(#SVGID_189_);stroke-width:3.4879;stroke-miterlimit:10;}
	.st180{fill:#FDC400;}
	.st181{fill:#00B29C;}
	.st182{fill:#8BCA00;}
	.st183{fill:#007FB2;}
	.st184{fill:#4E53A7;}
	.st185{fill:#793AAD;}
	.st186{fill:#BE36A4;}
	.st187{fill:#BD365F;}
	.st188{fill:url(#SVGID_190_);}
	.st189{fill:none;stroke:url(#SVGID_191_);stroke-width:3.4879;stroke-miterlimit:10;}
	.st190{fill:none;stroke:#000000;stroke-miterlimit:10;}
	.st191{fill:#B51B3F;}
	.st192{opacity:0.2;fill:none;stroke:#000000;stroke-miterlimit:10;}
	.st193{fill:url(#SVGID_192_);}
	.st194{fill:none;stroke:url(#SVGID_193_);stroke-width:3.4879;stroke-miterlimit:10;}
	.st195{fill:url(#SVGID_194_);}
	.st196{opacity:0.95;fill:#FCFCFC;}
	.st197{opacity:0.3;fill:none;stroke:#000000;stroke-miterlimit:10;}
	.st198{fill:#F9F9F9;}
	.st199{fill:url(#SVGID_197_);}
	.st200{clip-path:url(#SVGID_201_);}
	.st201{fill:url(#SVGID_202_);}
	.st202{fill:url(#SVGID_203_);}
	.st203{fill:url(#SVGID_204_);}
	.st204{fill:url(#SVGID_205_);}
	.st205{fill:url(#SVGID_206_);}
	.st206{fill:url(#SVGID_207_);}
	.st207{clip-path:url(#SVGID_209_);}
	.st208{fill:url(#SVGID_210_);}
	.st209{fill:url(#SVGID_211_);}
	.st210{fill:url(#SVGID_212_);}
	.st211{fill:url(#SVGID_213_);}
	.st212{fill:url(#SVGID_214_);}
	.st213{fill:url(#SVGID_215_);}
	.st214{fill:url(#SVGID_216_);}
	.st215{fill:url(#SVGID_217_);}
	.st216{fill:url(#SVGID_218_);}
	.st217{clip-path:url(#SVGID_220_);}
	.st218{fill:url(#SVGID_221_);}
	.st219{fill:url(#SVGID_222_);}
	.st220{fill:url(#SVGID_223_);}
	.st221{fill:url(#SVGID_224_);}
	.st222{fill:url(#SVGID_225_);}
	.st223{fill:url(#SVGID_226_);}
	.st224{opacity:0.65;fill:url(#SVGID_227_);}
	.st225{fill:url(#SVGID_228_);}
	.st226{fill:url(#SVGID_229_);}
	.st227{fill:url(#SVGID_230_);}
	.st228{clip-path:url(#SVGID_234_);}
	.st229{fill:url(#SVGID_235_);}
	.st230{fill:url(#SVGID_236_);}
	.st231{fill:url(#SVGID_237_);}
	.st232{fill:url(#SVGID_238_);}
	.st233{fill:url(#SVGID_239_);}
	.st234{fill:url(#SVGID_240_);}
	.st235{clip-path:url(#SVGID_242_);}
	.st236{fill:url(#SVGID_243_);}
	.st237{fill:url(#SVGID_244_);}
	.st238{fill:url(#SVGID_245_);}
	.st239{fill:url(#SVGID_246_);}
	.st240{fill:url(#SVGID_247_);}
	.st241{fill:url(#SVGID_248_);}
	.st242{fill:url(#SVGID_249_);}
	.st243{fill:url(#SVGID_250_);}
	.st244{fill:url(#SVGID_251_);}
	.st245{clip-path:url(#SVGID_253_);}
	.st246{fill:url(#SVGID_254_);}
	.st247{fill:url(#SVGID_255_);}
	.st248{fill:url(#SVGID_256_);}
	.st249{fill:url(#SVGID_257_);}
	.st250{fill:url(#SVGID_258_);}
	.st251{fill:url(#SVGID_259_);}
	.st252{opacity:0.65;fill:url(#SVGID_260_);}
	.st253{fill:#F7931E;}
	.st254{fill:#0071BC;}
	.st255{opacity:0.85;fill:url(#SVGID_261_);}
	.st256{fill:url(#SVGID_262_);}
	.st257{clip-path:url(#SVGID_266_);}
	.st258{fill:url(#SVGID_267_);}
	.st259{fill:url(#SVGID_268_);}
	.st260{fill:url(#SVGID_269_);}
	.st261{fill:url(#SVGID_270_);}
	.st262{fill:url(#SVGID_271_);}
	.st263{fill:url(#SVGID_272_);}
	.st264{clip-path:url(#SVGID_274_);}
	.st265{fill:url(#SVGID_275_);}
	.st266{fill:url(#SVGID_276_);}
	.st267{fill:url(#SVGID_277_);}
	.st268{fill:url(#SVGID_278_);}
	.st269{fill:url(#SVGID_279_);}
	.st270{fill:url(#SVGID_280_);}
	.st271{fill:url(#SVGID_281_);}
	.st272{fill:url(#SVGID_282_);}
	.st273{fill:url(#SVGID_283_);}
	.st274{clip-path:url(#SVGID_285_);}
	.st275{fill:url(#SVGID_286_);}
	.st276{fill:url(#SVGID_287_);}
	.st277{fill:url(#SVGID_288_);}
	.st278{fill:url(#SVGID_289_);}
	.st279{fill:url(#SVGID_290_);}
	.st280{fill:url(#SVGID_291_);}
	.st281{opacity:0.65;fill:url(#SVGID_292_);}
	.st282{clip-path:url(#SVGID_294_);}
	.st283{opacity:0.85;fill:url(#SVGID_301_);}
	.st284{fill:url(#SVGID_302_);}
	.st285{clip-path:url(#SVGID_306_);}
	.st286{fill:url(#SVGID_307_);}
	.st287{fill:url(#SVGID_308_);}
	.st288{fill:url(#SVGID_309_);}
	.st289{fill:url(#SVGID_310_);}
	.st290{fill:url(#SVGID_311_);}
	.st291{fill:url(#SVGID_312_);}
	.st292{clip-path:url(#SVGID_314_);}
	.st293{fill:url(#SVGID_315_);}
	.st294{fill:url(#SVGID_316_);}
	.st295{fill:url(#SVGID_317_);}
	.st296{fill:url(#SVGID_318_);}
	.st297{fill:url(#SVGID_319_);}
	.st298{fill:url(#SVGID_320_);}
	.st299{fill:url(#SVGID_321_);}
	.st300{fill:url(#SVGID_322_);}
	.st301{fill:url(#SVGID_323_);}
	.st302{clip-path:url(#SVGID_325_);}
	.st303{fill:url(#SVGID_326_);}
	.st304{fill:url(#SVGID_327_);}
	.st305{fill:url(#SVGID_328_);}
	.st306{fill:url(#SVGID_329_);}
	.st307{fill:url(#SVGID_330_);}
	.st308{fill:url(#SVGID_331_);}
	.st309{opacity:0.65;fill:url(#SVGID_332_);}
	.st310{fill:none;stroke:#DDDDDD;stroke-width:0.75;stroke-miterlimit:10;}
	.st311{fill:#666666;}
	.st312{opacity:0.85;fill:url(#SVGID_347_);}
	.st313{fill:url(#SVGID_348_);}
	.st314{clip-path:url(#SVGID_352_);}
	.st315{fill:url(#SVGID_353_);}
	.st316{fill:url(#SVGID_354_);}
	.st317{fill:url(#SVGID_355_);}
	.st318{fill:url(#SVGID_356_);}
	.st319{fill:url(#SVGID_357_);}
	.st320{fill:url(#SVGID_358_);}
	.st321{clip-path:url(#SVGID_360_);}
	.st322{fill:url(#SVGID_361_);}
	.st323{fill:url(#SVGID_362_);}
	.st324{fill:url(#SVGID_363_);}
	.st325{fill:url(#SVGID_364_);}
	.st326{fill:url(#SVGID_365_);}
	.st327{fill:url(#SVGID_366_);}
	.st328{fill:url(#SVGID_367_);}
	.st329{fill:url(#SVGID_368_);}
	.st330{fill:url(#SVGID_369_);}
	.st331{clip-path:url(#SVGID_371_);}
	.st332{fill:url(#SVGID_372_);}
	.st333{fill:url(#SVGID_373_);}
	.st334{fill:url(#SVGID_374_);}
	.st335{fill:url(#SVGID_375_);}
	.st336{fill:url(#SVGID_376_);}
	.st337{fill:url(#SVGID_377_);}
	.st338{opacity:0.65;fill:url(#SVGID_378_);}
	.st339{opacity:0.85;fill:url(#SVGID_379_);}
	.st340{fill:url(#SVGID_412_);}
	.st341{clip-path:url(#SVGID_416_);}
	.st342{fill:url(#SVGID_417_);}
	.st343{fill:url(#SVGID_418_);}
	.st344{fill:url(#SVGID_419_);}
	.st345{fill:url(#SVGID_420_);}
	.st346{fill:url(#SVGID_421_);}
	.st347{fill:url(#SVGID_422_);}
	.st348{clip-path:url(#SVGID_424_);}
	.st349{fill:url(#SVGID_425_);}
	.st350{fill:url(#SVGID_426_);}
	.st351{fill:url(#SVGID_427_);}
	.st352{fill:url(#SVGID_428_);}
	.st353{fill:url(#SVGID_429_);}
	.st354{fill:url(#SVGID_430_);}
	.st355{fill:url(#SVGID_431_);}
	.st356{fill:url(#SVGID_432_);}
	.st357{fill:url(#SVGID_433_);}
	.st358{clip-path:url(#SVGID_435_);}
	.st359{fill:url(#SVGID_436_);}
	.st360{fill:url(#SVGID_437_);}
	.st361{fill:url(#SVGID_438_);}
	.st362{fill:url(#SVGID_439_);}
	.st363{fill:url(#SVGID_440_);}
	.st364{fill:url(#SVGID_441_);}
	.st365{opacity:0.65;fill:url(#SVGID_442_);}
	.st366{fill:url(#SVGID_443_);}
	.st367{clip-path:url(#SVGID_447_);}
	.st368{fill:url(#SVGID_448_);}
	.st369{fill:url(#SVGID_449_);}
	.st370{fill:url(#SVGID_450_);}
	.st371{fill:url(#SVGID_451_);}
	.st372{fill:url(#SVGID_452_);}
	.st373{fill:url(#SVGID_453_);}
	.st374{clip-path:url(#SVGID_455_);}
	.st375{fill:url(#SVGID_456_);}
	.st376{fill:url(#SVGID_457_);}
	.st377{fill:url(#SVGID_458_);}
	.st378{fill:url(#SVGID_459_);}
	.st379{fill:url(#SVGID_460_);}
	.st380{fill:url(#SVGID_461_);}
	.st381{fill:url(#SVGID_462_);}
	.st382{fill:url(#SVGID_463_);}
	.st383{fill:url(#SVGID_464_);}
	.st384{clip-path:url(#SVGID_466_);}
	.st385{fill:url(#SVGID_467_);}
	.st386{fill:url(#SVGID_468_);}
	.st387{fill:url(#SVGID_469_);}
	.st388{fill:url(#SVGID_470_);}
	.st389{fill:url(#SVGID_471_);}
	.st390{fill:url(#SVGID_472_);}
	.st391{opacity:0.65;fill:url(#SVGID_473_);}
	.st392{opacity:0.85;fill:url(#SVGID_474_);}
	.st393{opacity:0.85;fill:url(#SVGID_477_);}
	.st394{fill:url(#SVGID_478_);stroke:#DDDDDD;stroke-miterlimit:10;}
	.st395{opacity:0.85;fill:url(#SVGID_479_);}
</style>
<g>
	<g>
		<g>
			<rect x="83.3" y="3.7" class="st79" width="2.7" height="2.7"></rect>
		</g>
	</g>
	<g>
		<g>
			<rect x="80.5" y="1" class="st79" width="2.7" height="2.7"></rect>
		</g>
	</g>
	<g>
		<g>
			<rect x="77.8" y="3.7" class="st79" width="2.7" height="2.7"></rect>
		</g>
	</g>
	<g>
		<g>
			<rect x="80.5" y="6.5" class="st79" width="2.7" height="2.7"></rect>
		</g>
	</g>
	<g>
		<g>
			<rect x="72.3" y="3.7" class="st79" width="2.7" height="2.7"></rect>
		</g>
	</g>
	<g>
		<g>
			<rect x="69.6" y="31.1" class="st79" width="2.7" height="2.7"></rect>
		</g>
	</g>
	<g>
		<g>
			<rect x="75.1" y="31.1" class="st79" width="2.7" height="2.7"></rect>
		</g>
	</g>
	<g>
		<g>
			<rect x="72.3" y="28.3" class="st79" width="2.7" height="2.7"></rect>
		</g>
	</g>
	<g>
		<g>
			<rect x="72.3" y="33.8" class="st79" width="2.7" height="2.7"></rect>
		</g>
	</g>
	<g>
		<g>
			<rect x="19" y="27" class="st79" width="2.7" height="2.7"></rect>
		</g>
	</g>
	<g>
		<g>
			<rect x="16.3" y="24.2" class="st79" width="2.7" height="2.7"></rect>
		</g>
	</g>
	<g>
		<g>
			<rect x="13.6" y="27" class="st79" width="2.7" height="2.7"></rect>
		</g>
	</g>
	<g>
		<g>
			<rect x="16.3" y="29.7" class="st79" width="2.7" height="2.7"></rect>
		</g>
	</g>
	<g>
		<g>
			<rect x="8.1" y="27" class="st79" width="2.7" height="2.7"></rect>
		</g>
	</g>
	<g>
		<g>
			<rect x="4" y="9.2" class="st79" width="2.7" height="2.7"></rect>
		</g>
	</g>
	<g>
		<g>
			<rect x="9.5" y="9.2" class="st79" width="2.7" height="2.7"></rect>
		</g>
	</g>
	<g>
		<g>
			<rect x="6.7" y="6.5" class="st79" width="2.7" height="2.7"></rect>
		</g>
	</g>
	<g>
		<g>
			<rect x="6.7" y="11.9" class="st79" width="2.7" height="2.7"></rect>
		</g>
	</g>
	<g>
		<g>
			<rect x="23.1" y="1" class="st79" width="2.7" height="2.7"></rect>
		</g>
	</g>
	<g>
		<g>
			<path class="st79" d="M77.6,65.2c-0.6-1.6-2.1-2.7-3.9-2.7h-3.3l-4.9-8.6V39.3c0-3-2.4-5.5-5.5-5.5V16c0.3-8-6-14.8-14-15     c-0.3,0-0.7,0-1,0c-9.4,0-14.8,7.7-15,15c0,0,0,0,0,0.1h0v17.8c-3,0-5.5,2.4-5.5,5.5v14.7l-4.9,8.6h-3.3c-2.3,0-4.1,1.8-4.1,4.1     c0,1.7,1.1,3.3,2.7,3.9c-2,2.2-1.8,5.6,0.5,7.6c0.8,0.7,1.8,1.2,2.9,1.3L44.8,83c0.1,0,0.2,0,0.4,0l26.6-3.6c3-0.4,5-3.1,4.6-6     c-0.1-1.1-0.6-2.1-1.3-2.9C77.2,69.7,78.3,67.4,77.6,65.2z M45,3.7c6.5-0.3,12,4.7,12.3,11.2c0,0.4,0,0.7,0,1.1h-2.7     c-3.8,0-6.8-3.1-6.8-6.8c0-0.8-0.6-1.4-1.4-1.4c-0.4,0-0.7,0.1-1,0.4c-3.4,3.4-7.8,5.6-12.5,6.3C33.6,8.4,38.8,3.8,45,3.7z      M42.3,35.2v-5.8c0.9,0.2,1.8,0.4,2.7,0.4c0.9,0,1.8-0.1,2.7-0.4v5.9c0,0.8,0.6,1.4,1.4,1.4h2.7v1.7L45,40.6l-6.8-2.3v-1.7h2.7     C41.7,36.5,42.3,35.9,42.3,35.2z M34.3,17c4.1-0.8,7.9-2.5,11.1-5.1c1.2,4.1,4.9,6.8,9.2,6.9h0.6c-1.7,4.6-6,8.2-10.2,8.2     C40.3,27,35.5,22.4,34.3,17z M50.5,33.8v-5.6c3-1.7,5.4-4.3,6.8-7.5v13.1h-4.1H50.5z M32.7,20.8c1.4,3.2,3.8,5.8,6.8,7.5v5.6     h-6.8V20.8z M35.4,36.5v2.7c0,0.6,0.4,1.1,0.9,1.3v0l8.2,2.7c0.3,0.1,0.6,0.1,0.9,0l8.2-2.7c0.6-0.2,0.9-0.7,0.9-1.3v-2.7h3.7     l-6.1,24.6H37.9l-6.1-24.6H35.4z M37.4,63.9h15.1l5.5,6.4L45,72.1l-13.1-1.8L37.4,63.9z M28.7,69.8l-2.5-0.3l8.6-9.5l0.5,2.2     L28.7,69.8z M54.7,62.1l0.5-2.2l8.6,9.5l-2.5,0.3L54.7,62.1z M14.9,66.6c0-0.8,0.6-1.4,1.4-1.4h4.1c0.5,0,0.9-0.3,1.2-0.7     l5.5-9.6c0.1-0.2,0.2-0.4,0.2-0.7v-15c0-1.1,0.7-2.1,1.7-2.5l2.5,10l2.5,10L23.9,68h-7.6C15.5,68,14.9,67.4,14.9,66.6z M45,80.3     l-26.4-3.6c-1.5-0.2-2.5-1.5-2.3-3c0.2-1.3,1.3-2.3,2.7-2.3c0.1,0,0.2,0,0.4,0l9.7,1.3l15.4,2.1l7.3,4.6L45,80.3z M71.4,76.7     l-15.3,2.1l-7.1-4.5l12-1.6l9.7-1.3c1.5-0.2,2.8,0.8,3,2.3c0,0.1,0,0.3,0,0.4C73.7,75.3,72.7,76.5,71.4,76.7z M73.7,68h-7.6     L56,56.8l2.5-10l2.5-10c1,0.4,1.7,1.4,1.7,2.5v15c0,0.2,0.1,0.5,0.2,0.7l5.5,9.6c0.2,0.4,0.7,0.7,1.2,0.7h4.1     c0.8,0,1.4,0.6,1.4,1.4C75.1,67.4,74.5,68,73.7,68z"></path>
		</g>
	</g>
</g>
</svg>